<svg width="37" height="24" viewBox="0 0 37 24" fill="none" xmlns="http://www.w3.org/2000/svg">
<path d="M2.38418 11.3708C2.21201 11.4515 2.13605 11.6549 2.21278 11.8287L2.99922 13.517C3.03786 13.6011 3.10835 13.6665 3.19504 13.6988C3.23302 13.7126 3.2733 13.7197 3.3138 13.7197C3.36448 13.7201 3.4145 13.7093 3.46058 13.6884L9.40256 10.913L8.86436 16.5403C8.85396 16.6511 8.89665 16.76 8.9795 16.834C9.24001 17.0496 9.56466 17.1724 9.90244 17.1835C9.99559 17.1834 10.0882 17.1716 10.1785 17.1487C10.6609 17.0228 11.0349 16.5929 11.29 15.8588L13.6284 8.9348L18.2595 6.77456C19.6226 6.13851 20.3251 4.84878 19.8534 3.8421C19.5856 3.31595 19.0728 2.95802 18.4867 2.88786C17.8354 2.78957 17.1698 2.89202 16.5783 3.18164L11.234 5.68766L5.48794 3.44018C4.76432 3.16763 4.19121 3.17464 3.78928 3.46481C3.45205 3.74151 3.26017 4.15745 3.26838 4.59363C3.27188 4.7043 3.32759 4.80664 3.41866 4.8699L7.28785 7.5297L5.07201 8.5783L1.35639 7.63445C1.20413 7.59702 1.04564 7.66565 0.968471 7.80225L0.0423567 9.46939C-0.00569486 9.55772 -0.0132474 9.66258 0.0216693 9.75693C0.0563672 9.85139 0.130141 9.92615 0.224164 9.96227L2.97492 11.0983L2.38418 11.3708ZM3.98477 4.41894C4.00535 4.27118 4.08011 4.13665 4.1946 4.04143C4.39392 3.89804 4.75743 3.91905 5.2432 4.10075L10.3603 6.09659L8.02537 7.1871L3.98477 4.41894ZM0.839202 9.46599L1.44734 8.38598L5.02297 9.27368C5.10003 9.29316 5.18135 9.28583 5.25381 9.25288L16.8755 3.8247C17.3375 3.59681 17.8579 3.51384 18.3679 3.58696C18.7256 3.61991 19.0443 3.82634 19.2208 4.13917C19.5142 4.76844 18.9376 5.68766 17.9623 6.14201L13.9358 8.02959L14.1806 7.30586C14.2424 7.11968 14.1414 6.9185 13.9552 6.85676C13.7688 6.79503 13.5677 6.89606 13.506 7.08224L10.6293 15.642C10.458 16.128 10.2448 16.4181 10.0072 16.4809C9.85997 16.5092 9.70761 16.4803 9.58075 16.4006L10.2799 9.06046C10.2981 8.86748 10.1566 8.69619 9.96341 8.67791C9.77044 8.65941 9.59914 8.80115 9.58075 8.99413L9.4725 10.1161L3.47448 12.9122L2.98193 11.8636L3.96737 11.4024C4.09423 11.3465 4.17599 11.221 4.17599 11.0826C4.17599 10.944 4.09423 10.8186 3.96737 10.7627L0.839202 9.46599Z" fill="#99582A"/>
<path d="M32.5556 12.8889V6.22222C32.5556 5 31.5556 4 30.3333 4H23.6667C22.4444 4 21.4444 5 21.4444 6.22222V8.44444H19.2222C18 8.44444 17 9.44444 17 10.6667V21.7778C17 23 18 24 19.2222 24H25.8889V19.5556H28.1111V24H34.7778C36 24 37 23 37 21.7778V15.1111C37 13.8889 36 12.8889 34.7778 12.8889H32.5556ZM21.4444 21.7778H19.2222V19.5556H21.4444V21.7778ZM21.4444 17.3333H19.2222V15.1111H21.4444V17.3333ZM21.4444 12.8889H19.2222V10.6667H21.4444V12.8889ZM25.8889 17.3333H23.6667V15.1111H25.8889V17.3333ZM25.8889 12.8889H23.6667V10.6667H25.8889V12.8889ZM25.8889 8.44444H23.6667V6.22222H25.8889V8.44444ZM30.3333 17.3333H28.1111V15.1111H30.3333V17.3333ZM30.3333 12.8889H28.1111V10.6667H30.3333V12.8889ZM30.3333 8.44444H28.1111V6.22222H30.3333V8.44444ZM34.7778 21.7778H32.5556V19.5556H34.7778V21.7778ZM34.7778 17.3333H32.5556V15.1111H34.7778V17.3333Z" fill="#99582A"/>
</svg>
