<svg width="37" height="26" viewBox="0 0 37 26" fill="none" xmlns="http://www.w3.org/2000/svg">
<path d="M19.3842 11.3708C19.212 11.4515 19.136 11.6549 19.2128 11.8287L19.9992 13.517C20.0379 13.6011 20.1084 13.6665 20.195 13.6988C20.233 13.7126 20.2733 13.7197 20.3138 13.7197C20.3645 13.7201 20.4145 13.7093 20.4606 13.6884L26.4026 10.913L25.8644 16.5403C25.854 16.6511 25.8966 16.76 25.9795 16.834C26.24 17.0496 26.5647 17.1724 26.9024 17.1835C26.9956 17.1834 27.0882 17.1716 27.1785 17.1487C27.6609 17.0228 28.0349 16.5929 28.29 15.8588L30.6284 8.9348L35.2595 6.77456C36.6226 6.13851 37.3251 4.84878 36.8534 3.8421C36.5856 3.31595 36.0728 2.95802 35.4867 2.88786C34.8354 2.78957 34.1698 2.89202 33.5783 3.18164L28.234 5.68766L22.4879 3.44018C21.7643 3.16763 21.1912 3.17464 20.7893 3.46481C20.452 3.74151 20.2602 4.15745 20.2684 4.59363C20.2719 4.7043 20.3276 4.80664 20.4187 4.8699L24.2878 7.5297L22.072 8.5783L18.3564 7.63445C18.2041 7.59702 18.0456 7.66565 17.9685 7.80225L17.0424 9.46939C16.9943 9.55772 16.9868 9.66258 17.0217 9.75693C17.0564 9.85139 17.1301 9.92615 17.2242 9.96227L19.9749 11.0983L19.3842 11.3708ZM20.9848 4.41894C21.0054 4.27118 21.0801 4.13665 21.1946 4.04143C21.3939 3.89804 21.7574 3.91905 22.2432 4.10075L27.3603 6.09659L25.0254 7.1871L20.9848 4.41894ZM17.8392 9.46599L18.4473 8.38598L22.023 9.27368C22.1 9.29316 22.1814 9.28583 22.2538 9.25288L33.8755 3.8247C34.3375 3.59681 34.8579 3.51384 35.3679 3.58696C35.7256 3.61991 36.0443 3.82634 36.2208 4.13917C36.5142 4.76844 35.9376 5.68766 34.9623 6.14201L30.9358 8.02959L31.1806 7.30586C31.2424 7.11968 31.1414 6.9185 30.9552 6.85676C30.7688 6.79503 30.5677 6.89606 30.506 7.08224L27.6293 15.642C27.458 16.128 27.2448 16.4181 27.0072 16.4809C26.86 16.5092 26.7076 16.4803 26.5808 16.4006L27.2799 9.06046C27.2981 8.86748 27.1566 8.69619 26.9634 8.67791C26.7704 8.65941 26.5991 8.80115 26.5808 8.99413L26.4725 10.1161L20.4745 12.9122L19.9819 11.8636L20.9674 11.4024C21.0942 11.3465 21.176 11.221 21.176 11.0826C21.176 10.944 21.0942 10.8186 20.9674 10.7627L17.8392 9.46599Z" fill="#111828"/>
<path d="M15.5556 14.8889V8.22222C15.5556 7 14.5556 6 13.3333 6H6.66667C5.44444 6 4.44444 7 4.44444 8.22222V10.4444H2.22222C1 10.4444 0 11.4444 0 12.6667V23.7778C0 25 1 26 2.22222 26H8.88889V21.5556H11.1111V26H17.7778C19 26 20 25 20 23.7778V17.1111C20 15.8889 19 14.8889 17.7778 14.8889H15.5556ZM4.44444 23.7778H2.22222V21.5556H4.44444V23.7778ZM4.44444 19.3333H2.22222V17.1111H4.44444V19.3333ZM4.44444 14.8889H2.22222V12.6667H4.44444V14.8889ZM8.88889 19.3333H6.66667V17.1111H8.88889V19.3333ZM8.88889 14.8889H6.66667V12.6667H8.88889V14.8889ZM8.88889 10.4444H6.66667V8.22222H8.88889V10.4444ZM13.3333 19.3333H11.1111V17.1111H13.3333V19.3333ZM13.3333 14.8889H11.1111V12.6667H13.3333V14.8889ZM13.3333 10.4444H11.1111V8.22222H13.3333V10.4444ZM17.7778 23.7778H15.5556V21.5556H17.7778V23.7778ZM17.7778 19.3333H15.5556V17.1111H17.7778V19.3333Z" fill="#111828"/>
</svg>
